<svg width="26" height="26" viewBox="0 0 26 26" fill="none" xmlns="http://www.w3.org/2000/svg">
<path fill-rule="evenodd" clip-rule="evenodd" d="M19.6022 6.14682C19.6022 8.58424 18.9965 11.7632 18.0648 11.2808C17.6838 12.525 16.8839 13.599 15.801 14.3205C14.718 15.0419 13.4188 15.3663 12.1238 15.2385C10.8289 15.1108 9.61804 14.5388 8.69693 13.6197C7.77583 12.7005 7.20122 11.4909 7.07069 10.1963C6.146 8.5786 4.93328 5.33693 8.05101 2.81006C8.10735 2.79175 8.14115 2.63964 8.19186 2.41568C8.38482 1.56847 8.8123 -0.314708 11.5089 0.0451653C13.5886 0.321937 19.6022 1.39522 19.6022 6.14682ZM16.9218 7.6835C16.9218 7.6835 16.6035 8.61452 16.9021 9.65189C16.8982 10.758 16.4608 11.8184 15.6837 12.6056C14.9066 13.3928 13.8519 13.8439 12.746 13.862C11.64 13.8802 10.571 13.464 9.76854 12.7027C8.96605 11.9415 8.49403 10.896 8.45384 9.79062C8.55596 9.40329 8.55596 8.74763 8.55525 8.01872C8.55455 6.70388 8.55314 5.15241 9.15528 4.51999C13.3731 7.32926 16.9218 7.6835 16.9218 7.6835Z" fill="#97A3B0"/>
<path d="M4.92977 21.7745C4.92977 21.0125 5.33331 20.3448 5.93897 19.973C5.91591 19.8853 5.89431 19.7973 5.87418 19.7089C5.76731 19.2278 5.68387 18.7417 5.62417 18.2525C5.56366 17.7838 5.52722 17.3122 5.51501 16.8398C2.54236 18.0067 0 20.0406 0 22.1759V26H25.3531V22.1759C25.3531 20.1308 23.022 18.1793 20.2135 16.9926V17.0123C20.2262 17.4419 20.2022 17.9349 20.1557 18.4089C20.1135 18.8483 20.0508 19.2864 19.9754 19.6617H20.4233C20.5541 19.6618 20.6823 19.6983 20.7935 19.767C20.9046 19.8358 20.9945 19.9342 21.053 20.0512L21.7572 21.4597C21.8065 21.5576 21.8319 21.6653 21.8319 21.7745V23.183C21.8319 23.3698 21.7577 23.5489 21.6256 23.681C21.4935 23.813 21.3144 23.8872 21.1276 23.8872H19.7191V22.4787H20.4233V21.9407L19.9881 21.0702H18.0416L17.6063 21.9407V22.4787H18.3106V23.8872H16.9021C16.7153 23.8872 16.5362 23.813 16.4041 23.681C16.272 23.5489 16.1978 23.3698 16.1978 23.183V21.7745C16.1978 21.6653 16.2232 21.5576 16.2725 21.4597L16.9767 20.0512C17.0352 19.9342 17.125 19.8358 17.2362 19.767C17.3474 19.6983 17.4756 19.6618 17.6063 19.6617H18.5324C18.5479 19.6012 18.5634 19.5343 18.5789 19.4603C18.6493 19.1286 18.712 18.7082 18.7543 18.2736C18.7965 17.8384 18.8162 17.4067 18.8057 17.0518C18.803 16.9047 18.7915 16.758 18.7712 16.6123C18.7557 16.5123 18.7402 16.4665 18.7374 16.4567C18.7367 16.4546 18.736 16.4538 18.7374 16.4553L18.7395 16.4546C18.3658 16.3385 17.9878 16.2367 17.6063 16.1496C17.2521 16.0686 16.8859 16.556 16.726 16.8609H8.45104C8.43048 16.8217 8.41029 16.7822 8.39048 16.7426C8.24117 16.4454 8.05736 16.0785 7.74679 16.1496C7.47565 16.2109 7.20451 16.2813 6.93338 16.3588C6.92464 16.4823 6.92088 16.6061 6.92211 16.7299C6.92492 17.1194 6.96225 17.5961 7.02211 18.0779C7.08197 18.5582 7.16296 19.0258 7.24747 19.3948C7.27142 19.5012 7.29536 19.5969 7.3179 19.6793C7.72053 19.7323 8.09937 19.9001 8.40908 20.1628C8.71879 20.4254 8.94624 20.7718 9.0642 21.1604C9.18216 21.549 9.18563 21.9633 9.0742 22.3538C8.96276 22.7443 8.74115 23.0944 8.43588 23.3623C8.13062 23.6301 7.75464 23.8042 7.35295 23.8639C6.95126 23.9236 6.54089 23.8662 6.17096 23.6987C5.80103 23.5312 5.48722 23.2606 5.26709 22.9193C5.04697 22.578 4.92985 22.1806 4.92977 21.7745Z" fill="#97A3B0"/>
<path d="M7.74689 21.7739C7.74689 22.1782 7.42152 22.4887 7.04263 22.4887C6.66374 22.4887 6.33838 22.1789 6.33838 21.7739C6.33838 21.3697 6.66374 21.0591 7.04263 21.0591C7.42152 21.0591 7.74689 21.369 7.74689 21.7739Z" fill="#97A3B0"/>
</svg>
