<!-- <svg width="29" height="29" viewBox="0 0 29 29" fill="none" xmlns="http://www.w3.org/2000/svg">
<g clip-path="url(#clip0_23_27)">
<path d="M28.1312 15.1412H23.0996C18.7045 15.1412 15.1416 18.7042 15.1416 23.0993V28.1308C22.0784 27.6165 27.6168 22.078 28.1312 15.1412Z" fill="#3263CF"/>
<path d="M13.0288 28.1308V23.0993C13.0288 18.7042 9.46587 15.1412 5.07076 15.1412H0.0391846C0.553522 22.078 6.092 27.6165 13.0288 28.1308Z" fill="#3263CF"/>
<path d="M28.1312 13.0285C27.6168 6.09169 22.0784 0.553217 15.1416 0.0388794V5.07046C15.1416 9.46556 18.7045 13.0285 23.0996 13.0285H28.1312Z" fill="#3263CF"/>
<path d="M13.0288 0.0388794C6.092 0.553217 0.553522 6.09169 0.0391846 13.0285H5.07076C9.46587 13.0285 13.0288 9.46556 13.0288 5.07046V0.0388794Z" fill="#3263CF"/>
<path d="M9.5658 14.0848C11.5183 13.1092 13.1096 11.518 14.0851 9.56546C15.0607 11.518 16.6519 13.1092 18.6045 14.0848C16.6519 15.0604 15.0607 16.6516 14.0851 18.6042C13.1096 16.6516 11.5183 15.0604 9.5658 14.0848Z" fill="#68E197"/>
</g>
<defs>
<clipPath id="clip0_23_27">
<rect width="28.17" height="28.17" fill="white"/>
</clipPath>
</defs>
</svg> -->
<svg width="150" height="29" viewBox="0 0 150 29" fill="none" xmlns="http://www.w3.org/2000/svg">
<path d="M46.802 22.8825C44.8716 22.8825 43.2876 22.338 42.0502 21.249C40.8127 20.16 40.194 18.6998 40.194 16.8684V5.21144H43.5846V16.5961C43.5846 17.5036 43.8404 18.2213 44.3519 18.7493C44.8798 19.2773 45.6966 19.5413 46.802 19.5413C47.9075 19.5413 48.716 19.2773 49.2275 18.7493C49.7555 18.2213 50.0195 17.5036 50.0195 16.5961V5.21144H53.4349V16.8684C53.4349 18.6998 52.8161 20.16 51.5787 21.249C50.3412 22.338 48.749 22.8825 46.802 22.8825Z" fill="black"/>
<path d="M63.2435 9.81482C64.5965 9.81482 65.7102 10.2686 66.5847 11.176C67.4757 12.0835 67.9212 13.3375 67.9212 14.9379V22.536H64.7285V15.3339C64.7285 14.5089 64.5058 13.882 64.0603 13.453C63.6148 13.0075 63.0208 12.7847 62.2783 12.7847C61.4533 12.7847 60.7934 13.0405 60.2984 13.552C59.8034 14.0635 59.5559 14.8307 59.5559 15.8537V22.536H56.3632V10.1613H59.5559V11.5473C60.3314 10.3923 61.5606 9.81482 63.2435 9.81482Z" fill="black"/>
<path d="M72.2312 8.67635C71.7032 8.67635 71.2412 8.48661 70.8453 8.10712C70.4658 7.71113 70.276 7.24914 70.276 6.72115C70.276 6.19317 70.4658 5.73118 70.8453 5.33519C71.2412 4.9392 71.7032 4.74121 72.2312 4.74121C72.7757 4.74121 73.2377 4.9392 73.6172 5.33519C74.0132 5.73118 74.2112 6.19317 74.2112 6.72115C74.2112 7.24914 74.0132 7.71113 73.6172 8.10712C73.2377 8.48661 72.7757 8.67635 72.2312 8.67635ZM70.6473 22.536V10.1613H73.8399V22.536H70.6473Z" fill="black"/>
<path d="M86.7608 5.21144H90.1515V22.536H86.7608V15.3587H80.326V22.536H76.9106V5.21144H80.326V12.0918H86.7608V5.21144Z" fill="black"/>
<path d="M95.919 17.6604C96.348 19.2113 97.5113 19.9868 99.4087 19.9868C100.63 19.9868 101.554 19.5743 102.181 18.7493L104.755 20.2343C103.534 21.9998 101.735 22.8825 99.3592 22.8825C97.3133 22.8825 95.6716 22.2637 94.4341 21.0263C93.1966 19.7888 92.5779 18.2296 92.5779 16.3486C92.5779 14.4842 93.1884 12.9332 94.4093 11.6958C95.6303 10.4418 97.1978 9.81482 99.1117 9.81482C100.927 9.81482 102.42 10.4418 103.591 11.6958C104.779 12.9497 105.373 14.5007 105.373 16.3486C105.373 16.7611 105.332 17.1984 105.25 17.6604H95.919ZM95.8695 15.1854H102.181C101.999 14.344 101.62 13.717 101.042 13.3045C100.481 12.892 99.8377 12.6857 99.1117 12.6857C98.2537 12.6857 97.5443 12.9085 96.9833 13.354C96.4223 13.783 96.051 14.3935 95.8695 15.1854Z" fill="black"/>
<path d="M116.91 10.1613H120.103V22.536H116.91V21.0758C115.953 22.2802 114.608 22.8825 112.876 22.8825C111.226 22.8825 109.807 22.2555 108.619 21.0015C107.448 19.7311 106.862 18.1801 106.862 16.3486C106.862 14.5172 107.448 12.9745 108.619 11.7205C109.807 10.4501 111.226 9.81482 112.876 9.81482C114.608 9.81482 115.953 10.4171 116.91 11.6215V10.1613ZM111.02 18.8731C111.663 19.5166 112.48 19.8383 113.47 19.8383C114.46 19.8383 115.277 19.5166 115.92 18.8731C116.58 18.2131 116.91 17.3716 116.91 16.3486C116.91 15.3257 116.58 14.4924 115.92 13.849C115.277 13.189 114.46 12.859 113.47 12.859C112.48 12.859 111.663 13.189 111.02 13.849C110.376 14.4924 110.055 15.3257 110.055 16.3486C110.055 17.3716 110.376 18.2131 111.02 18.8731Z" fill="black"/>
<path d="M122.998 22.536V4.46896H126.191V22.536H122.998Z" fill="black"/>
<path d="M136.191 13.2302H133.394V18.3781C133.394 18.8071 133.502 19.1206 133.716 19.3186C133.931 19.5166 134.244 19.6321 134.657 19.6651C135.069 19.6816 135.581 19.6733 136.191 19.6403V22.536C133.997 22.7835 132.446 22.5772 131.538 21.9173C130.647 21.2573 130.202 20.0776 130.202 18.3781V13.2302H128.049V10.1613H130.202V7.66163L133.394 6.6964V10.1613H136.191V13.2302Z" fill="black"/>
<path d="M145.322 9.81482C146.675 9.81482 147.789 10.2686 148.664 11.176C149.555 12.0835 150 13.3375 150 14.9379V22.536H146.807V15.3339C146.807 14.5089 146.585 13.882 146.139 13.453C145.694 13.0075 145.1 12.7847 144.357 12.7847C143.532 12.7847 142.872 13.0405 142.377 13.552C141.882 14.0635 141.635 14.8307 141.635 15.8537V22.536H138.442V5.21144H141.635V11.5473C142.41 10.3923 143.639 9.81482 145.322 9.81482Z" fill="black"/>
<g clip-path="url(#clip0_23_25)">
<path d="M28.1312 15.1412H23.0996C18.7045 15.1412 15.1416 18.7042 15.1416 23.0993V28.1308C22.0784 27.6165 27.6168 22.078 28.1312 15.1412Z" fill="#3263CF"/>
<path d="M13.0288 28.1308V23.0993C13.0288 18.7042 9.46587 15.1412 5.07076 15.1412H0.0391846C0.553522 22.078 6.092 27.6165 13.0288 28.1308Z" fill="#3263CF"/>
<path d="M28.1312 13.0285C27.6168 6.09169 22.0784 0.553217 15.1416 0.0388794V5.07046C15.1416 9.46556 18.7045 13.0285 23.0996 13.0285H28.1312Z" fill="#3263CF"/>
<path d="M13.0288 0.0388794C6.092 0.553217 0.553522 6.09169 0.0391846 13.0285H5.07076C9.46587 13.0285 13.0288 9.46556 13.0288 5.07046V0.0388794Z" fill="#3263CF"/>
<path d="M9.5658 14.0848C11.5183 13.1092 13.1096 11.518 14.0851 9.56546C15.0607 11.518 16.6519 13.1092 18.6045 14.0848C16.6519 15.0604 15.0607 16.6516 14.0851 18.6042C13.1096 16.6516 11.5183 15.0604 9.5658 14.0848Z" fill="#68E197"/>
</g>
<defs>
<clipPath id="clip0_23_25">
<rect width="28.17" height="28.17" fill="white"/>
</clipPath>
</defs>
</svg>
