<svg width="26" height="26" viewBox="0 0 26 26" fill="none" xmlns="http://www.w3.org/2000/svg">
<path d="M9.66559 24.1832C7.7108 23.6012 5.97077 22.5207 4.59296 21.089C5.10694 20.4798 5.41671 19.6928 5.41671 18.8333C5.41671 16.9003 3.8497 15.3333 1.91671 15.3333C1.79978 15.3333 1.68419 15.3391 1.5702 15.3503C1.41492 14.5911 1.33337 13.8051 1.33337 13C1.33337 11.7805 1.52049 10.6046 1.86758 9.49965C1.88393 9.49988 1.90031 9.49999 1.91671 9.49999C3.8497 9.49999 5.41671 7.93299 5.41671 5.99999C5.41671 5.44507 5.28757 4.92032 5.0577 4.45414C6.40694 3.19962 8.05368 2.26076 9.88041 1.75508C10.4593 2.88969 11.6389 3.66666 13 3.66666C14.3612 3.66666 15.5408 2.88969 16.1197 1.75508C17.9464 2.26076 19.5931 3.19962 20.9424 4.45414C20.7125 4.92032 20.5834 5.44507 20.5834 5.99999C20.5834 7.93299 22.1504 9.49999 24.0834 9.49999C24.0998 9.49999 24.1161 9.49988 24.1325 9.49965C24.4796 10.6046 24.6667 11.7805 24.6667 13C24.6667 13.8051 24.5852 14.5911 24.4299 15.3503C24.3159 15.3391 24.2003 15.3333 24.0834 15.3333C22.1504 15.3333 20.5834 16.9003 20.5834 18.8333C20.5834 19.6928 20.8931 20.4798 21.4071 21.089C20.0293 22.5207 18.2893 23.6012 16.3345 24.1832C15.8833 22.7719 14.561 21.75 13 21.75C11.4391 21.75 10.1167 22.7719 9.66559 24.1832Z" fill="#97A3B0" stroke="#97A3B0" stroke-width="2.32258" stroke-linejoin="round"/>
<path d="M13 17.0833C15.2551 17.0833 17.0833 15.2552 17.0833 13C17.0833 10.7448 15.2551 8.91666 13 8.91666C10.7448 8.91666 8.91663 10.7448 8.91663 13C8.91663 15.2552 10.7448 17.0833 13 17.0833Z" fill="#97A3B0" stroke="white" stroke-width="2.32258" stroke-linejoin="round"/>
</svg>
